<?xml version="1.0" encoding="UTF-8" standalone="no"?>
<!-- Created with Inkscape (http://www.inkscape.org/) -->

<svg
   xmlns:dc="http://purl.org/dc/elements/1.1/"
   xmlns:cc="http://creativecommons.org/ns#"
   xmlns:rdf="http://www.w3.org/1999/02/22-rdf-syntax-ns#"
   xmlns:svg="http://www.w3.org/2000/svg"
   xmlns="http://www.w3.org/2000/svg"
   xmlns:sodipodi="http://sodipodi.sourceforge.net/DTD/sodipodi-0.dtd"
   xmlns:inkscape="http://www.inkscape.org/namespaces/inkscape"
   width="71.799171mm"
   height="16.67482mm"
   viewBox="0 0 71.799171 16.67482"
   version="1.1"
   id="svg8"
   inkscape:version="0.92.4 (5da689c313, 2019-01-14)"
   sodipodi:docname="logo.svg">
  <defs
     id="defs2" />
  <sodipodi:namedview
     id="base"
     pagecolor="#ffffff"
     bordercolor="#666666"
     borderopacity="1.0"
     inkscape:pageopacity="0.0"
     inkscape:pageshadow="2"
     inkscape:zoom="2.8"
     inkscape:cx="114.50054"
     inkscape:cy="11.029674"
     inkscape:document-units="mm"
     inkscape:current-layer="layer1"
     showgrid="false"
     inkscape:window-width="1858"
     inkscape:window-height="1016"
     inkscape:window-x="62"
     inkscape:window-y="27"
     inkscape:window-maximized="1"
     fit-margin-top="0"
     fit-margin-left="0"
     fit-margin-right="0"
     fit-margin-bottom="0" />
  <metadata
     id="metadata5">
    <rdf:RDF>
      <cc:Work
         rdf:about="">
        <dc:format>image/svg+xml</dc:format>
        <dc:type
           rdf:resource="http://purl.org/dc/dcmitype/StillImage" />
        <dc:title />
      </cc:Work>
    </rdf:RDF>
  </metadata>
  <g
     inkscape:label="Ebene 1"
     inkscape:groupmode="layer"
     id="layer1"
     transform="translate(-42.196003,-97.084343)">
    <g
       aria-label="LESBAR.CLUB"
       style="font-style:normal;font-weight:normal;font-size:10.58333302px;line-height:1.25;font-family:sans-serif;letter-spacing:0px;word-spacing:0px;fill:#000000;fill-opacity:1;stroke:none;stroke-width:0.26458332"
       id="text12-3">
      <path
         d="m 47.132146,113.75916 h -4.2672 V 97.728941 h 2.190045 l -0.474134,14.178849 2.551289,0.4064 z"
         style="font-style:normal;font-variant:normal;font-weight:normal;font-stretch:normal;font-size:22.57777786px;font-family:Bahiana;-inkscape-font-specification:'Bahiana, Normal';font-variant-ligatures:normal;font-variant-caps:normal;font-variant-numeric:normal;font-feature-settings:normal;text-align:start;writing-mode:lr-tb;text-anchor:start;stroke-width:0.26458332"
         id="path34" />
      <path
         d="M 54.033538,113.30761 H 48.72776 l 0.519289,-15.578669 h 4.583289 v 1.761066 h -3.228622 v 4.651023 h 2.460977 v 1.12889 l -2.348088,0.4064 v 5.75733 l 3.048,-0.4064 z"
         style="font-style:normal;font-variant:normal;font-weight:normal;font-stretch:normal;font-size:22.57777786px;font-family:Bahiana;-inkscape-font-specification:'Bahiana, Normal';font-variant-ligatures:normal;font-variant-caps:normal;font-variant-numeric:normal;font-feature-settings:normal;text-align:start;writing-mode:lr-tb;text-anchor:start;stroke-width:0.26458332"
         id="path36" />
      <path
         d="m 59.393644,100.91241 -0.451556,-1.761069 -1.354667,0.158044 -0.338666,5.012265 3.273777,0.58702 -0.316088,7.49583 q 0,0.45155 -0.587023,0.90311 -0.587022,0.45155 -1.083733,0.45155 h -2.6416 l -0.2032,-3.8608 h 1.332089 l -0.02258,1.96427 1.580445,0.36124 0.361244,-6.00568 -3.048,-0.67734 v -7.270043 l 0.903111,-0.541866 h 3.544711 l -0.112889,3.183469 z"
         style="font-style:normal;font-variant:normal;font-weight:normal;font-stretch:normal;font-size:22.57777786px;font-family:Bahiana;-inkscape-font-specification:'Bahiana, Normal';font-variant-ligatures:normal;font-variant-caps:normal;font-variant-numeric:normal;font-feature-settings:normal;text-align:start;writing-mode:lr-tb;text-anchor:start;stroke-width:0.26458332"
         id="path38" />
      <path
         d="m 66.100655,105.31507 q 0.541867,0.0903 0.835378,0.2032 0.316089,0.0903 0.316089,0.29352 v 6.81848 q 0,0.4064 -0.587023,0.54187 -0.564444,0.13547 -1.106311,0.13547 H 62.48821 V 97.728941 h 2.551289 q 0.699911,0 1.332089,0.225777 0.654756,0.225778 0.654756,0.857956 l -0.02258,0.225778 -0.654755,5.757338 q 0,0.24835 -0.04516,0.33866 -0.04516,0.0903 -0.2032,0.18062 z m -2.325511,-0.92568 q 0,0.18062 0.270933,0.18062 l 0.857956,-0.33867 q 0.2032,-0.0452 0.2032,-0.2032 l 0.225777,-4.876799 q 0,-0.09031 -0.316088,-0.09031 h -0.970845 q -0.270933,0 -0.270933,0.09031 z m 1.083733,7.65386 q 0.4064,0 0.564445,-0.18062 0.180622,-0.18062 0.180622,-0.36124 0,-0.13547 -0.04516,-0.13547 v -5.08 q 0.06773,-0.0452 0.06773,-0.0677 0,-0.0677 -0.158045,-0.0677 H 64.52021 q -0.06773,0 -0.158044,0.0452 -0.06773,0.0451 -0.09031,0.0903 v 5.6896 q 0.02258,0.0226 0.09031,0.0451 0.06773,0.0226 0.158044,0.0226 z"
         style="font-style:normal;font-variant:normal;font-weight:normal;font-stretch:normal;font-size:22.57777786px;font-family:Bahiana;-inkscape-font-specification:'Bahiana, Normal';font-variant-ligatures:normal;font-variant-caps:normal;font-variant-numeric:normal;font-feature-settings:normal;text-align:start;writing-mode:lr-tb;text-anchor:start;stroke-width:0.26458332"
         id="path40" />
      <path
         d="m 74.491474,113.75916 h -0.993422 l -0.8128,-6.00569 -1.806222,0.85796 -0.496712,5.14773 h -1.399822 l 1.016,-16.030219 h 3.567289 z M 72.391741,98.812674 q 0,-0.135467 -0.135467,-0.135467 l -0.970844,0.225778 q -0.135467,0.06773 -0.135467,0.225778 v 7.947377 q 0,0.11289 0.135467,0.11289 l 0.835377,-0.13547 q 0.135467,0 0.135467,-0.13546 z"
         style="font-style:normal;font-variant:normal;font-weight:normal;font-stretch:normal;font-size:22.57777786px;font-family:Bahiana;-inkscape-font-specification:'Bahiana, Normal';font-variant-ligatures:normal;font-variant-caps:normal;font-variant-numeric:normal;font-feature-settings:normal;text-align:start;writing-mode:lr-tb;text-anchor:start;stroke-width:0.26458332"
         id="path42" />
      <path
         d="m 76.378835,97.977296 q 0,-0.112889 0.925689,-0.180622 0.925689,-0.06773 1.8288,-0.06773 h 0.970845 q 0.361244,0 0.587022,0.270933 0.225778,0.270933 0.248356,0.699911 l 0.225777,6.502405 -1.016,1.33208 1.806223,6.72818 -0.428978,0.49671 H 80.19448 l -1.151467,-7.02169 -1.151466,0.11289 -0.474134,6.9088 h -1.038578 z m 3.115734,7.089424 q 0.135466,0 0.135466,-0.13547 v -5.621865 l -0.338666,-0.338667 -1.557867,0.158045 0.06773,6.028267 z"
         style="font-style:normal;font-variant:normal;font-weight:normal;font-stretch:normal;font-size:22.57777786px;font-family:Bahiana;-inkscape-font-specification:'Bahiana, Normal';font-variant-ligatures:normal;font-variant-caps:normal;font-variant-numeric:normal;font-feature-settings:normal;text-align:start;writing-mode:lr-tb;text-anchor:start;stroke-width:0.26458332"
         id="path44" />
      <path
         d="m 83.79246,111.68201 2.167467,-0.0903 -0.09031,2.16746 H 83.79246 Z"
         style="font-style:normal;font-variant:normal;font-weight:normal;font-stretch:normal;font-size:22.57777786px;font-family:Bahiana;-inkscape-font-specification:'Bahiana, Normal';font-variant-ligatures:normal;font-variant-caps:normal;font-variant-numeric:normal;font-feature-settings:normal;text-align:start;writing-mode:lr-tb;text-anchor:start;stroke-width:0.26458332"
         id="path46" />
      <path
         d="m 93.705867,113.75916 h -3.228622 q -1.151466,0 -1.715911,-0.38382 -0.564444,-0.4064 -0.564444,-1.016 V 98.993296 q 0,-0.541866 0.474133,-0.903111 0.474133,-0.361244 1.332089,-0.361244 h 3.702755 v 1.264355 l -0.361244,2.822224 H 91.85449 l -0.225778,-2.55129 q 0,-0.2032 -0.270933,-0.2032 h -0.948267 q -0.428978,0 -0.632178,0.361244 -0.180622,0.338667 -0.180622,0.767646 0,0.24835 0.06773,0.29351 l 0.451556,11.26631 q -0.06773,0.0226 -0.06773,0.0677 0,0.0677 0.2032,0.0677 h 1.332089 q 0.270934,0 0.270934,-0.13547 l 0.451555,-1.76107 h 1.399822 z"
         style="font-style:normal;font-variant:normal;font-weight:normal;font-stretch:normal;font-size:22.57777786px;font-family:Bahiana;-inkscape-font-specification:'Bahiana, Normal';font-variant-ligatures:normal;font-variant-caps:normal;font-variant-numeric:normal;font-feature-settings:normal;text-align:start;writing-mode:lr-tb;text-anchor:start;stroke-width:0.26458332"
         id="path48" />
      <path
         d="M 100.29823,113.75916 H 95.737516 V 97.728941 h 1.670756 V 111.3885 l 0.338666,0.51929 2.551292,0.29351 z"
         style="font-style:normal;font-variant:normal;font-weight:normal;font-stretch:normal;font-size:22.57777786px;font-family:Bahiana;-inkscape-font-specification:'Bahiana, Normal';font-variant-ligatures:normal;font-variant-caps:normal;font-variant-numeric:normal;font-feature-settings:normal;text-align:start;writing-mode:lr-tb;text-anchor:start;stroke-width:0.26458332"
         id="path50" />
      <path
         d="m 106.96114,112.85605 q 0,0.31609 -0.33866,0.6096 -0.31609,0.29351 -0.63218,0.29351 h -3.77049 V 98.24823 h 1.35467 v 13.95307 l 1.96426,0.13546 -0.47413,-14.607819 h 1.91911 z"
         style="font-style:normal;font-variant:normal;font-weight:normal;font-stretch:normal;font-size:22.57777786px;font-family:Bahiana;-inkscape-font-specification:'Bahiana, Normal';font-variant-ligatures:normal;font-variant-caps:normal;font-variant-numeric:normal;font-feature-settings:normal;text-align:start;writing-mode:lr-tb;text-anchor:start;stroke-width:0.26458332"
         id="path52" />
      <path
         d="m 112.84371,105.31507 q 0.54187,0.0903 0.83538,0.2032 0.31609,0.0903 0.31609,0.29352 v 6.81848 q 0,0.4064 -0.58703,0.54187 -0.56444,0.13547 -1.10631,0.13547 h -3.07058 V 97.728941 h 2.55129 q 0.69991,0 1.33209,0.225777 0.65476,0.225778 0.65476,0.857956 l -0.0226,0.225778 -0.65476,5.757338 q 0,0.24835 -0.0452,0.33866 -0.0452,0.0903 -0.2032,0.18062 z m -2.32551,-0.92568 q 0,0.18062 0.27093,0.18062 l 0.85796,-0.33867 q 0.2032,-0.0452 0.2032,-0.2032 l 0.22577,-4.876799 q 0,-0.09031 -0.31608,-0.09031 h -0.97085 q -0.27093,0 -0.27093,0.09031 z m 1.08373,7.65386 q 0.4064,0 0.56445,-0.18062 0.18062,-0.18062 0.18062,-0.36124 0,-0.13547 -0.0452,-0.13547 v -5.08 q 0.0677,-0.0452 0.0677,-0.0677 0,-0.0677 -0.15805,-0.0677 h -0.94827 q -0.0677,0 -0.15804,0.0452 -0.0677,0.0451 -0.0903,0.0903 v 5.6896 q 0.0226,0.0226 0.0903,0.0451 0.0677,0.0226 0.15804,0.0226 z"
         style="font-style:normal;font-variant:normal;font-weight:normal;font-stretch:normal;font-size:22.57777786px;font-family:Bahiana;-inkscape-font-specification:'Bahiana, Normal';font-variant-ligatures:normal;font-variant-caps:normal;font-variant-numeric:normal;font-feature-settings:normal;text-align:start;writing-mode:lr-tb;text-anchor:start;stroke-width:0.26458332"
         id="path54" />
    </g>
    <g
       aria-label="LESBAR.CLUB"
       style="font-style:normal;font-weight:normal;font-size:10.58333302px;line-height:1.25;font-family:sans-serif;letter-spacing:0px;word-spacing:0px;fill:#f846ab;fill-opacity:1;stroke:#000000;stroke-width:0.26458332"
       id="text12">
      <path
         d="m 46.595495,113.24686 h -4.2672 V 97.216634 h 2.190044 l -0.474133,14.178846 2.551289,0.4064 z"
         style="font-style:normal;font-variant:normal;font-weight:normal;font-stretch:normal;font-size:22.57777786px;font-family:Bahiana;-inkscape-font-specification:'Bahiana, Normal';font-variant-ligatures:normal;font-variant-caps:normal;font-variant-numeric:normal;font-feature-settings:normal;text-align:start;writing-mode:lr-tb;text-anchor:start;fill:#f846ab;fill-opacity:1;stroke:#000000;stroke-width:0.26458332"
         id="path11" />
      <path
         d="m 53.496886,112.7953 h -5.305778 l 0.519289,-15.578666 h 4.583289 v 1.761067 h -3.228622 v 4.651019 h 2.460978 v 1.12889 l -2.348089,0.4064 v 5.75734 l 3.048,-0.4064 z"
         style="font-style:normal;font-variant:normal;font-weight:normal;font-stretch:normal;font-size:22.57777786px;font-family:Bahiana;-inkscape-font-specification:'Bahiana, Normal';font-variant-ligatures:normal;font-variant-caps:normal;font-variant-numeric:normal;font-feature-settings:normal;text-align:start;writing-mode:lr-tb;text-anchor:start;fill:#f846ab;fill-opacity:1;stroke:#000000;stroke-width:0.26458332"
         id="path13" />
      <path
         d="m 58.856992,100.4001 -0.451556,-1.761066 -1.354666,0.158045 -0.338667,5.012271 3.273778,0.58702 -0.316089,7.49582 q 0,0.45156 -0.587022,0.90311 -0.587022,0.45156 -1.083734,0.45156 h -2.6416 l -0.2032,-3.8608 h 1.332089 l -0.02258,1.96426 1.580444,0.36125 0.361244,-6.00569 -3.048,-0.67733 v -7.270049 l 0.903112,-0.541867 h 3.544711 L 59.69237,100.4001 Z"
         style="font-style:normal;font-variant:normal;font-weight:normal;font-stretch:normal;font-size:22.57777786px;font-family:Bahiana;-inkscape-font-specification:'Bahiana, Normal';font-variant-ligatures:normal;font-variant-caps:normal;font-variant-numeric:normal;font-feature-settings:normal;text-align:start;writing-mode:lr-tb;text-anchor:start;fill:#f846ab;fill-opacity:1;stroke:#000000;stroke-width:0.26458332"
         id="path15" />
      <path
         d="m 65.564003,104.80277 q 0.541867,0.0903 0.835378,0.2032 0.316089,0.0903 0.316089,0.29351 v 6.81849 q 0,0.4064 -0.587022,0.54186 -0.564445,0.13547 -1.106311,0.13547 H 61.951559 V 97.216634 h 2.551289 q 0.699911,0 1.332089,0.225778 0.654755,0.225778 0.654755,0.857956 l -0.02258,0.225778 -0.654755,5.757334 q 0,0.24835 -0.04516,0.33867 -0.04515,0.0903 -0.2032,0.18062 z m -2.325511,-0.92569 q 0,0.18062 0.270934,0.18062 l 0.857955,-0.33867 q 0.2032,-0.0452 0.2032,-0.2032 l 0.225778,-4.876796 q 0,-0.09031 -0.316089,-0.09031 h -0.970844 q -0.270934,0 -0.270934,0.09031 z m 1.083734,7.65387 q 0.4064,0 0.564444,-0.18063 0.180622,-0.18062 0.180622,-0.36124 0,-0.13547 -0.04515,-0.13547 v -5.08 q 0.06773,-0.0452 0.06773,-0.0677 0,-0.0677 -0.158044,-0.0677 h -0.948267 q -0.06773,0 -0.158045,0.0452 -0.06773,0.0452 -0.09031,0.0903 v 5.6896 q 0.02258,0.0226 0.09031,0.0452 0.06773,0.0226 0.158045,0.0226 z"
         style="font-style:normal;font-variant:normal;font-weight:normal;font-stretch:normal;font-size:22.57777786px;font-family:Bahiana;-inkscape-font-specification:'Bahiana, Normal';font-variant-ligatures:normal;font-variant-caps:normal;font-variant-numeric:normal;font-feature-settings:normal;text-align:start;writing-mode:lr-tb;text-anchor:start;fill:#f846ab;fill-opacity:1;stroke:#000000;stroke-width:0.26458332"
         id="path17" />
      <path
         d="M 73.954822,113.24686 H 72.9614 l -0.8128,-6.00569 -1.806222,0.85795 -0.496711,5.14774 h -1.399822 l 1.016,-16.030226 h 3.567289 z M 71.855089,98.300368 q 0,-0.135467 -0.135467,-0.135467 l -0.970844,0.225778 q -0.135467,0.06773 -0.135467,0.225778 v 7.947373 q 0,0.11289 0.135467,0.11289 l 0.835378,-0.13546 q 0.135466,0 0.135466,-0.13547 z"
         style="font-style:normal;font-variant:normal;font-weight:normal;font-stretch:normal;font-size:22.57777786px;font-family:Bahiana;-inkscape-font-specification:'Bahiana, Normal';font-variant-ligatures:normal;font-variant-caps:normal;font-variant-numeric:normal;font-feature-settings:normal;text-align:start;writing-mode:lr-tb;text-anchor:start;fill:#f846ab;fill-opacity:1;stroke:#000000;stroke-width:0.26458332"
         id="path19" />
      <path
         d="m 75.842184,97.46499 q 0,-0.112889 0.925689,-0.180622 0.925689,-0.06773 1.8288,-0.06773 h 0.970844 q 0.361245,0 0.587022,0.270934 0.225778,0.270933 0.248356,0.699911 l 0.225778,6.502401 -1.016,1.33209 1.806222,6.72818 -0.428978,0.49671 h -1.332089 l -1.151466,-7.02169 -1.151467,0.11289 -0.474133,6.9088 h -1.038578 z m 3.115733,7.08942 q 0.135467,0 0.135467,-0.13546 v -5.621871 l -0.338667,-0.338667 -1.557866,0.158045 0.06773,6.028263 z"
         style="font-style:normal;font-variant:normal;font-weight:normal;font-stretch:normal;font-size:22.57777786px;font-family:Bahiana;-inkscape-font-specification:'Bahiana, Normal';font-variant-ligatures:normal;font-variant-caps:normal;font-variant-numeric:normal;font-feature-settings:normal;text-align:start;writing-mode:lr-tb;text-anchor:start;fill:#f846ab;fill-opacity:1;stroke:#000000;stroke-width:0.26458332"
         id="path21" />
      <path
         d="m 83.255809,111.1697 2.167466,-0.0903 -0.09031,2.16747 h -2.077155 z"
         style="font-style:normal;font-variant:normal;font-weight:normal;font-stretch:normal;font-size:22.57777786px;font-family:Bahiana;-inkscape-font-specification:'Bahiana, Normal';font-variant-ligatures:normal;font-variant-caps:normal;font-variant-numeric:normal;font-feature-settings:normal;text-align:start;writing-mode:lr-tb;text-anchor:start;fill:#f846ab;fill-opacity:1;stroke:#000000;stroke-width:0.26458332"
         id="path23" />
      <path
         d="m 93.169216,113.24686 h -3.228622 q -1.151467,0 -1.715911,-0.38383 -0.564445,-0.4064 -0.564445,-1.016 V 98.48099 q 0,-0.541867 0.474133,-0.903111 0.474134,-0.361245 1.332089,-0.361245 h 3.702756 v 1.264356 l -0.361245,2.82222 H 91.317838 L 91.09206,98.751923 q 0,-0.2032 -0.270933,-0.2032 H 89.87286 q -0.428977,0 -0.632177,0.361245 -0.180623,0.338666 -0.180623,0.767644 0,0.248356 0.06773,0.293511 l 0.451555,11.266307 q -0.06773,0.0226 -0.06773,0.0677 0,0.0677 0.2032,0.0677 h 1.332089 q 0.270933,0 0.270933,-0.13547 l 0.451556,-1.76106 h 1.399822 z"
         style="font-style:normal;font-variant:normal;font-weight:normal;font-stretch:normal;font-size:22.57777786px;font-family:Bahiana;-inkscape-font-specification:'Bahiana, Normal';font-variant-ligatures:normal;font-variant-caps:normal;font-variant-numeric:normal;font-feature-settings:normal;text-align:start;writing-mode:lr-tb;text-anchor:start;fill:#f846ab;fill-opacity:1;stroke:#000000;stroke-width:0.26458332"
         id="path25" />
      <path
         d="M 99.761576,113.24686 H 95.200865 V 97.216634 h 1.670755 v 13.659556 l 0.338667,0.51929 2.551289,0.29351 z"
         style="font-style:normal;font-variant:normal;font-weight:normal;font-stretch:normal;font-size:22.57777786px;font-family:Bahiana;-inkscape-font-specification:'Bahiana, Normal';font-variant-ligatures:normal;font-variant-caps:normal;font-variant-numeric:normal;font-feature-settings:normal;text-align:start;writing-mode:lr-tb;text-anchor:start;fill:#f846ab;fill-opacity:1;stroke:#000000;stroke-width:0.26458332"
         id="path27" />
      <path
         d="m 106.42449,112.34375 q 0,0.31608 -0.33867,0.6096 -0.31609,0.29351 -0.63217,0.29351 h -3.77049 V 97.735923 h 1.35466 v 13.953067 l 1.96427,0.13547 -0.47413,-14.607826 h 1.91911 z"
         style="font-style:normal;font-variant:normal;font-weight:normal;font-stretch:normal;font-size:22.57777786px;font-family:Bahiana;-inkscape-font-specification:'Bahiana, Normal';font-variant-ligatures:normal;font-variant-caps:normal;font-variant-numeric:normal;font-feature-settings:normal;text-align:start;writing-mode:lr-tb;text-anchor:start;fill:#f846ab;fill-opacity:1;stroke:#000000;stroke-width:0.26458332"
         id="path29" />
      <path
         d="m 112.30706,104.80277 q 0.54186,0.0903 0.83537,0.2032 0.31609,0.0903 0.31609,0.29351 v 6.81849 q 0,0.4064 -0.58702,0.54186 -0.56444,0.13547 -1.10631,0.13547 h -3.07058 V 97.216634 h 2.55129 q 0.69991,0 1.33209,0.225778 0.65476,0.225778 0.65476,0.857956 l -0.0226,0.225778 -0.65476,5.757334 q 0,0.24835 -0.0451,0.33867 -0.0452,0.0903 -0.2032,0.18062 z m -2.32551,-0.92569 q 0,0.18062 0.27093,0.18062 l 0.85795,-0.33867 q 0.2032,-0.0452 0.2032,-0.2032 l 0.22578,-4.876796 q 0,-0.09031 -0.31609,-0.09031 h -0.97084 q -0.27093,0 -0.27093,0.09031 z m 1.08373,7.65387 q 0.4064,0 0.56444,-0.18063 0.18063,-0.18062 0.18063,-0.36124 0,-0.13547 -0.0452,-0.13547 v -5.08 q 0.0677,-0.0452 0.0677,-0.0677 0,-0.0677 -0.15804,-0.0677 h -0.94827 q -0.0677,0 -0.15804,0.0452 -0.0677,0.0452 -0.0903,0.0903 v 5.6896 q 0.0226,0.0226 0.0903,0.0452 0.0677,0.0226 0.15804,0.0226 z"
         style="font-style:normal;font-variant:normal;font-weight:normal;font-stretch:normal;font-size:22.57777786px;font-family:Bahiana;-inkscape-font-specification:'Bahiana, Normal';font-variant-ligatures:normal;font-variant-caps:normal;font-variant-numeric:normal;font-feature-settings:normal;text-align:start;writing-mode:lr-tb;text-anchor:start;fill:#f846ab;fill-opacity:1;stroke:#000000;stroke-width:0.26458332"
         id="path31" />
    </g>
  </g>
</svg>
