<?xml version="1.0" encoding="UTF-8" standalone="no"?>
<!-- Created with Inkscape (http://www.inkscape.org/) -->

<svg
   xmlns:dc="http://purl.org/dc/elements/1.1/"
   xmlns:cc="http://creativecommons.org/ns#"
   xmlns:rdf="http://www.w3.org/1999/02/22-rdf-syntax-ns#"
   xmlns:svg="http://www.w3.org/2000/svg"
   xmlns="http://www.w3.org/2000/svg"
   xmlns:sodipodi="http://sodipodi.sourceforge.net/DTD/sodipodi-0.dtd"
   xmlns:inkscape="http://www.inkscape.org/namespaces/inkscape"
   width="21mm"
   height="21mm"
   viewBox="0 0 20.999999 21"
   version="1.1"
   id="svg8"
   inkscape:version="0.92.4 (5da689c313, 2019-01-14)"
   sodipodi:docname="favicon.svg">
  <defs
     id="defs2" />
  <sodipodi:namedview
     id="base"
     pagecolor="#ffffff"
     bordercolor="#666666"
     borderopacity="1.0"
     inkscape:pageopacity="0.0"
     inkscape:pageshadow="2"
     inkscape:zoom="2.8"
     inkscape:cx="114.14339"
     inkscape:cy="12.458245"
     inkscape:document-units="mm"
     inkscape:current-layer="layer2"
     showgrid="false"
     inkscape:window-width="1858"
     inkscape:window-height="1016"
     inkscape:window-x="62"
     inkscape:window-y="27"
     inkscape:window-maximized="1"
     fit-margin-top="0"
     fit-margin-left="0"
     fit-margin-right="0"
     fit-margin-bottom="0" />
  <metadata
     id="metadata5">
    <rdf:RDF>
      <cc:Work
         rdf:about="">
        <dc:format>image/svg+xml</dc:format>
        <dc:type
           rdf:resource="http://purl.org/dc/dcmitype/StillImage" />
        <dc:title></dc:title>
      </cc:Work>
    </rdf:RDF>
  </metadata>
  <g
     inkscape:label="Ebene 1"
     inkscape:groupmode="layer"
     id="layer1"
     transform="translate(-37.478733,-95.862852)">
    <rect
       style="opacity:0.9;fill:#e5e5e5;fill-opacity:1;stroke:none;stroke-width:1.15533221;stroke-linecap:round;stroke-linejoin:round;stroke-miterlimit:4;stroke-dasharray:none;stroke-opacity:1;paint-order:normal"
       id="rect1123"
       width="21.737637"
       height="21.325365"
       x="37.308189"
       y="95.785439"
       ry="0" />
  </g>
  <g
     inkscape:groupmode="layer"
     id="layer3"
     inkscape:label="Letter"
     sodipodi:insensitive="true">
    <g
       style="fill:#fab4dc;fill-opacity:1"
       id="g1061"
       transform="matrix(0.26458333,0,0,0.26458333,7.776784,-9.4189309)"
       sodipodi:insensitive="true">
      <path
         id="path871"
         d="m -31.461143,50.936819 v -3.664 q 0,-0.32 0.016,-0.656 0.016,-0.336 0.032,-0.672 h -0.048 q -0.352,0.544 -0.96,0.928 -0.592,0.384 -1.552,0.384 -1.552,0 -2.528,-1.12 -0.976,-1.136 -0.976,-3.312 0,-1.472 0.448,-2.464 0.464,-0.992 1.248,-1.488 0.8,-0.512 1.824,-0.512 0.944,0 1.536,0.384 0.608,0.384 0.96,0.928 h 0.064 l 0.208,-1.152 h 1.152 v 12.416 z m -2.256,-4.848 q 2.256,0 2.256,-2.944 v -0.32 q 0,-1.552 -0.512,-2.416 -0.496,-0.88 -1.776,-0.88 -1.168,0 -1.712,0.848 -0.544,0.848 -0.544,2.464 0,1.472 0.544,2.368 0.56,0.88 1.744,0.88 z"
         inkscape:connector-curvature="0"
         style="fill:#fab4dc;fill-opacity:1" />
      <path
         id="path873"
         d="m -27.131393,47.096819 -1.376,-8.576 h 1.344 l 0.624,4.24 q 0.096,0.592 0.128,1.056 0.048,0.464 0.08,0.944 0.048,0.48 0.08,1.136 h 0.048 q 0.048,-0.272 0.128,-0.752 0.096,-0.496 0.208,-1.056 0.128,-0.576 0.272,-1.056 l 0.832,-2.896 h 1.584 l 0.8,2.896 q 0.144,0.48 0.272,1.04 0.128,0.544 0.224,1.04 0.112,0.48 0.144,0.784 h 0.048 q 0.048,-0.64 0.08,-1.104 0.032,-0.48 0.08,-0.944 0.048,-0.464 0.144,-1.088 l 0.672,-4.24 h 1.312 l -1.408,8.576 h -1.728 l -0.768,-3.008 q -0.16,-0.656 -0.336,-1.312 -0.176,-0.656 -0.304,-1.296 h -0.048 q -0.128,0.64 -0.32,1.296 -0.176,0.656 -0.352,1.312 l -0.784,3.008 z"
         inkscape:connector-curvature="0"
         style="fill:#fab4dc;fill-opacity:1" />
      <path
         id="path875"
         d="m -13.777643,47.256819 q -2.064,0 -3.248,-1.136 -1.184,-1.152 -1.184,-3.28 0,-1.408 0.512,-2.4 0.512,-1.008 1.424,-1.536 0.912,-0.544 2.128,-0.544 1.68,0 2.64,1.088 0.976,1.088 0.976,2.976 v 0.656 h -6.224 q 0.032,1.12 0.416,1.776 0.4,0.656 1.072,0.944 0.688,0.272 1.584,0.272 0.704,0 1.392,-0.192 0.688,-0.192 1.376,-0.512 v 1.28 q -0.736,0.32 -1.472,0.464 -0.736,0.144 -1.392,0.144 z m -2.944,-5.328 h 4.752 q -0.048,-1.12 -0.608,-1.76 -0.544,-0.64 -1.568,-0.64 -1.072,0 -1.744,0.656 -0.656,0.64 -0.832,1.744 z"
         inkscape:connector-curvature="0"
         style="fill:#fab4dc;fill-opacity:1" />
      <path
         id="path877"
         d="m -8.5838932,47.096819 v -0.96 l 2.608,-0.24 v -6.176 l -2.352,-0.208 v -0.992 h 3.504 l 0.192,1.568 h 0.064 q 0.448,-0.848 0.976,-1.28 0.544,-0.448 1.424,-0.448 0.544,0 0.96,0.096 0.43199996,0.096 0.78399996,0.256 l -0.384,1.264 q -0.25599996,-0.144 -0.60799996,-0.24 -0.352,-0.112 -0.752,-0.112 -0.688,0 -1.216,0.432 -0.528,0.432 -0.832,1.152 -0.304,0.72 -0.304,1.584 v 3.104 l 2.496,0.24 v 0.96 z"
         inkscape:connector-curvature="0"
         style="fill:#fab4dc;fill-opacity:1" />
      <path
         id="path879"
         d="m 6.4498568,47.256819 q -0.912,0 -1.632,-0.24 -0.72,-0.24 -1.152,-0.848 -0.416,-0.608 -0.416,-1.68 v -4.768 H 0.91385676 v -0.992 l 2.33600004,-0.256 0.288,-2.24 h 1.152 v 2.288 h 3.344 v 1.2 h -3.344 v 4.496 q 0,0.976 0.432,1.424 0.432,0.448 1.424,0.448 0.416,0 0.896,-0.08 0.48,-0.08 0.832,-0.16 v 1.152 q -0.384,0.096 -0.848,0.176 -0.464,0.08 -0.976,0.08 z"
         inkscape:connector-curvature="0"
         style="fill:#fab4dc;fill-opacity:1" />
      <path
         id="path881"
         d="m 11.051607,47.096819 v -0.976 l 5.04,-6.496 h -4.784 v -1.104 h 6.336 v 1.136 l -4.88,6.224 h 5.008 v 1.216 z"
         inkscape:connector-curvature="0"
         style="fill:#fab4dc;fill-opacity:1" />
      <path
         id="path883"
         d="m 23.381357,47.256819 q -1.52,0 -2.256,-0.752 -0.72,-0.768 -0.72,-2.272 v -5.712 h 1.44 v 5.488 q 0,1.024 0.416,1.552 0.432,0.528 1.472,0.528 1.328,0 1.84,-0.832 0.512,-0.832 0.512,-2.32 v -4.416 h 1.44 v 8.576 h -1.152 l -0.208,-1.152 h -0.08 q -0.448,0.72 -1.136,1.024 -0.672,0.288 -1.568,0.288 z"
         inkscape:connector-curvature="0"
         style="fill:#fab4dc;fill-opacity:1" />
      <path
         id="path885"
         d="m 33.711107,36.968819 q -0.416,0 -0.72,-0.256 -0.288,-0.256 -0.288,-0.752 0,-0.528 0.288,-0.768 0.304,-0.256 0.72,-0.256 0.416,0 0.704,0.256 0.304,0.24 0.304,0.768 0,0.496 -0.304,0.752 -0.288,0.256 -0.704,0.256 z m -3.632,10.128 v -0.96 l 3.056,-0.24 v -6.176 l -2.8,-0.208 v -0.992 h 4.24 v 7.376 l 2.864,0.24 v 0.96 z"
         inkscape:connector-curvature="0"
         style="fill:#fab4dc;fill-opacity:1" />
      <path
         id="path887"
         d="m 42.740821,47.304819 q -1.12,0 -2.016,-0.48 -0.88,-0.496 -1.408,-1.488 -0.512,-1.008 -0.512,-2.512 0,-1.488 0.496,-2.464 0.512,-0.976 1.392,-1.456 0.88,-0.496 2,-0.496 1.12,0 2.016,0.496 0.896,0.48 1.408,1.472 0.528,0.976 0.528,2.496 0,1.488 -0.512,2.48 -0.512,0.976 -1.392,1.472 -0.88,0.48 -2,0.48 z m -0.016,-1.168 q 1.248,0 1.856,-0.88 0.608,-0.896 0.608,-2.416 0,-1.52 -0.624,-2.384 -0.608,-0.88 -1.856,-0.88 -1.248,0 -1.872,0.88 -0.608,0.864 -0.608,2.384 0,1.52 0.624,2.416 0.624,0.88 1.872,0.88 z"
         inkscape:connector-curvature="0"
         style="fill:#fab4dc;fill-opacity:1" />
      <path
         id="path889"
         d="m 49.266607,50.936819 v -12.416 h 1.184 l 0.176,1.168 h 0.064 q 0.368,-0.624 0.976,-0.976 0.624,-0.352 1.584,-0.352 1.568,0 2.512,1.12 0.944,1.12 0.944,3.312 0,2.192 -0.944,3.328 -0.944,1.136 -2.512,1.136 -0.944,0 -1.568,-0.384 -0.624,-0.384 -0.992,-0.88 h -0.096 q 0.096,0.624 0.096,1.28 v 3.664 z m 3.68,-4.848 q 1.2,0 1.744,-0.816 0.544,-0.832 0.544,-2.512 0,-1.648 -0.544,-2.432 -0.528,-0.8 -1.76,-0.8 -1.168,0 -1.712,0.768 -0.528,0.752 -0.528,2.176 v 0.32 q 0,1.52 0.48,2.416 0.496,0.88 1.776,0.88 z"
         inkscape:connector-curvature="0"
         style="fill:#fab4dc;fill-opacity:1" />
      <path
         id="path895"
         d="m -33.893143,63.923485 q -0.8,0 -1.536,-0.144 -0.72,-0.144 -1.248,-0.4 v -1.328 q 0.56,0.256 1.232,0.48 0.688,0.208 1.632,0.208 1.056,0 1.488,-0.32 0.448,-0.336 0.448,-0.96 0,-0.336 -0.16,-0.544 -0.144,-0.224 -0.576,-0.448 -0.432,-0.224 -1.264,-0.576 -0.832,-0.368 -1.424,-0.688 -0.592,-0.32 -0.912,-0.752 -0.32,-0.448 -0.32,-1.136 0,-1.136 0.864,-1.712 0.88,-0.576 2.432,-0.576 0.704,0 1.344,0.128 0.64,0.128 1.328,0.416 l -0.432,1.12 q -0.64,-0.272 -1.184,-0.368 -0.528,-0.096 -1.056,-0.096 -0.992,0 -1.456,0.256 -0.448,0.256 -0.448,0.8 0,0.352 0.192,0.592 0.208,0.24 0.656,0.464 0.464,0.224 1.216,0.544 0.848,0.352 1.44,0.656 0.592,0.304 0.896,0.736 0.304,0.416 0.304,1.152 0,1.216 -0.88,1.856 -0.864,0.64 -2.576,0.64 z"
         inkscape:connector-curvature="0"
         style="fill:#fab4dc;fill-opacity:1" />
      <path
         id="path897"
         d="m -24.379393,63.923485 q -1.584,0 -2.544,-1.104 -0.96,-1.12 -0.96,-3.392 0,-2.144 0.912,-3.264 0.912,-1.136 2.752,-1.136 0.896,0 1.472,0.352 0.576,0.352 0.88,0.896 h 0.096 q -0.032,-0.224 -0.064,-0.592 -0.032,-0.368 -0.032,-0.672 v -3.408 h 1.424 v 12.16 h -1.184 l -0.16,-1.152 h -0.064 q -0.352,0.576 -0.96,0.944 -0.592,0.368 -1.568,0.368 z m 0.272,-1.168 q 1.136,0 1.68,-0.784 0.56,-0.8 0.56,-2.16 v -0.32 q 0,-0.944 -0.208,-1.68 -0.208,-0.752 -0.688,-1.184 -0.48,-0.432 -1.296,-0.432 -1.12,0 -1.744,0.832 -0.608,0.832 -0.608,2.544 0,3.184 2.304,3.184 z"
         inkscape:connector-curvature="0"
         style="fill:#fab4dc;fill-opacity:1" />
      <path
         id="path899"
         d="m -15.313643,63.763485 v -7.376 h -2.8 v -0.992 l 2.8,-0.208 v -0.976 q 0,-1.024 0.384,-1.6 0.4,-0.592 1.104,-0.832 0.704,-0.256 1.632,-0.256 0.704,0 1.232,0.096 0.528,0.096 0.912,0.224 l -0.32,1.104 q -0.32,-0.096 -0.8,-0.16 -0.48,-0.08 -0.944,-0.08 -0.832,0 -1.296,0.352 -0.464,0.352 -0.464,1.344 v 0.784 h 3.232 v 1.2 h -3.232 v 7.376 z"
         inkscape:connector-curvature="0"
         style="fill:#fab4dc;fill-opacity:1" />
      <path
         id="path901"
         d="m -5.1598932,67.683485 q -0.88,0 -1.664,-0.176 -0.768,-0.16 -1.424,-0.432 v -1.28 q 0.64,0.368 1.472,0.544 0.848,0.192 1.568,0.192 1.456,0 2.032,-0.688 0.576,-0.672 0.576,-1.856 v -0.304 q 0,-0.192 0,-0.368 0.016,-0.176 0.048,-0.544 h -0.064 q -0.448,0.656 -1.056,0.912 -0.592,0.24 -1.44,0.24 -1.696,0 -2.64,-1.152 -0.944,-1.168 -0.944,-3.248 0,-2.096 0.928,-3.296 0.944,-1.2 2.576,-1.2 0.864,0 1.456,0.288 0.592,0.272 1.056,0.928 h 0.08 l 0.192,-1.056 h 1.152 v 8.8 q 0,1.84 -0.944,2.768 -0.944,0.928 -2.96,0.928 z m 0.32,-4.928 q 1.072,0 1.68,-0.688 0.608,-0.704 0.608,-2.24 v -0.336 q 0,-1.76 -0.624,-2.528 -0.624,-0.768 -1.712,-0.768 -1.216,0 -1.776,0.864 -0.56,0.848 -0.56,2.416 0,1.6 0.576,2.448 0.592,0.832 1.808,0.832 z"
         inkscape:connector-curvature="0"
         style="fill:#fab4dc;fill-opacity:1" />
      <path
         id="path903"
         d="m 1.2978568,63.763485 v -12.16 h 1.44 v 3.456 q 0,0.304 -0.032,0.768 -0.016,0.464 -0.032,0.736 h 0.08 q 0.416,-0.8 1.104,-1.168 0.704,-0.368 1.584,-0.368 1.328,0 2.144,0.752 0.832,0.736 0.832,2.384 v 5.6 h -1.44 v -5.312 q 0,-1.168 -0.496,-1.712 -0.496,-0.544 -1.408,-0.544 -1.072,0 -1.712,0.832 -0.624,0.816 -0.624,2.288 v 4.448 z"
         inkscape:connector-curvature="0"
         style="fill:#fab4dc;fill-opacity:1" />
      <path
         id="path905"
         d="m 15.083607,53.635485 q -0.416,0 -0.704,-0.256 -0.288,-0.256 -0.288,-0.768 0,-0.512 0.272,-0.752 0.288,-0.256 0.72,-0.256 0.416,0 0.704,0.256 0.304,0.24 0.304,0.752 0,0.528 -0.304,0.784 -0.304,0.24 -0.704,0.24 z m -2.4,14.048 q -0.496,0 -1.104,-0.08 -0.592,-0.08 -1.008,-0.192 v -1.264 q 0.416,0.144 0.944,0.24 0.528,0.096 1.008,0.096 1.072,0 1.536,-0.528 0.464,-0.528 0.464,-1.6 v -7.968 l -2.8,-0.208 v -0.992 h 4.24 v 9.408 q 0,1.488 -0.864,2.288 -0.848,0.8 -2.416,0.8 z"
         inkscape:connector-curvature="0"
         style="fill:#fab4dc;fill-opacity:1" />
      <path
         id="path907"
         d="m 20.885357,63.763485 v -12.16 h 1.44 v 5.856 q 0,0.496 -0.048,1.184 -0.032,0.672 -0.064,1.232 h 0.032 q 0.304,-0.4 0.576,-0.72 0.288,-0.336 0.592,-0.688 l 2.96,-3.28 h 1.728 l -3.408,3.696 3.632,4.88 h -1.664 l -2.928,-4.032 -1.408,1.36 v 2.672 z"
         inkscape:connector-curvature="0"
         style="fill:#fab4dc;fill-opacity:1" />
      <path
         id="path909"
         d="m 30.079107,63.763485 v -0.96 l 3.136,-0.24 v -9.76 l -3.04,-0.208 v -0.992 h 4.48 v 10.96 l 2.784,0.24 v 0.96 z"
         inkscape:connector-curvature="0"
         style="fill:#fab4dc;fill-opacity:1" />
      <path
         id="path911"
         d="m 43.208857,63.923485 q -1.12,0 -2.016,-0.48 -0.88,-0.496 -1.408,-1.488 -0.512,-1.008 -0.512,-2.512 0,-1.488 0.496,-2.464 0.512,-0.976 1.392,-1.456 0.88,-0.496 2,-0.496 1.12,0 2.016,0.496 0.896,0.48 1.408,1.472 0.528,0.976 0.528,2.496 0,1.488 -0.512,2.48 -0.512,0.976 -1.392,1.472 -0.88,0.48 -2,0.48 z m -0.016,-1.168 q 1.248,0 1.856,-0.88 0.608,-0.896 0.608,-2.416 0,-1.52 -0.624,-2.384 -0.608,-0.88 -1.856,-0.88 -1.248,0 -1.872,0.88 -0.608,0.864 -0.608,2.384 0,1.52 0.624,2.416 0.624,0.88 1.872,0.88 z m 1.824,-8.944 q -0.352,0 -0.608,-0.224 -0.256,-0.24 -0.256,-0.72 0,-0.496 0.256,-0.704 0.256,-0.208 0.608,-0.208 0.352,0 0.608,0.208 0.272,0.208 0.272,0.704 0,0.48 -0.272,0.72 -0.256,0.224 -0.608,0.224 z m -3.664,0 q -0.352,0 -0.608,-0.224 -0.256,-0.24 -0.256,-0.72 0,-0.496 0.256,-0.704 0.256,-0.208 0.608,-0.208 0.352,0 0.608,0.208 0.272,0.208 0.272,0.704 0,0.48 -0.272,0.72 -0.256,0.224 -0.608,0.224 z"
         inkscape:connector-curvature="0"
         style="fill:#fab4dc;fill-opacity:1" />
      <path
         id="path913"
         d="m 51.922607,63.923485 q -1.264,0 -2.048,-0.624 -0.768,-0.624 -0.768,-1.888 0,-1.392 0.992,-2.08 1.008,-0.688 2.896,-0.736 l 1.84,-0.048 v -0.352 q 0,-1.152 -0.576,-1.568 -0.576,-0.432 -1.552,-0.432 -0.688,0 -1.312,0.176 -0.624,0.176 -1.184,0.496 l -0.496,-1.088 q 0.608,-0.304 1.344,-0.528 0.752,-0.224 1.728,-0.224 1.616,0 2.48,0.736 0.88,0.72 0.88,2.256 v 5.744 h -1.152 l -0.16,-1.184 h -0.064 q -0.528,0.672 -1.216,1.008 -0.688,0.336 -1.632,0.336 z m 0.24,-1.168 q 0.72,0 1.328,-0.256 0.608,-0.272 0.976,-0.8 0.368,-0.544 0.368,-1.36 v -0.768 l -1.536,0.048 q -1.536,0.048 -2.192,0.496 -0.64,0.448 -0.64,1.248 0,0.736 0.464,1.072 0.464,0.32 1.232,0.32 z m 2.528,-8.944 q -0.352,0 -0.608,-0.224 -0.256,-0.24 -0.256,-0.72 0,-0.496 0.256,-0.704 0.256,-0.208 0.608,-0.208 0.352,0 0.608,0.208 0.272,0.208 0.272,0.704 0,0.48 -0.272,0.72 -0.256,0.224 -0.608,0.224 z m -3.664,0 q -0.352,0 -0.608,-0.224 -0.256,-0.24 -0.256,-0.72 0,-0.496 0.256,-0.704 0.256,-0.208 0.608,-0.208 0.352,0 0.608,0.208 0.272,0.208 0.272,0.704 0,0.48 -0.272,0.72 -0.256,0.224 -0.608,0.224 z"
         inkscape:connector-curvature="0"
         style="fill:#fab4dc;fill-opacity:1" />
      <path
         id="path919"
         d="m -32.949143,80.590151 q -1.888,0 -2.976,-1.024 -1.072,-1.04 -1.072,-3.36 0,-1.648 0.528,-2.64 0.544,-0.992 1.488,-1.424 0.96,-0.448 2.176,-0.448 0.752,0 1.36,0.16 0.624,0.144 1.168,0.432 l -0.432,1.168 q -0.512,-0.272 -0.992,-0.384 -0.48,-0.128 -1.04,-0.128 -1.472,0 -2.128,0.816 -0.656,0.8 -0.656,2.416 0,1.712 0.688,2.448 0.688,0.736 2.048,0.736 0.704,0 1.328,-0.144 0.624,-0.16 1.088,-0.368 v 1.264 q -0.48,0.224 -1.184,0.352 -0.704,0.128 -1.392,0.128 z"
         inkscape:connector-curvature="0"
         style="fill:#fab4dc;fill-opacity:1" />
      <path
         id="path921"
         d="m -24.875393,80.430151 -3.168,-8.576 h 1.472 l 1.792,5.088 q 0.176,0.512 0.368,1.072 0.208,0.56 0.416,1.2 h 0.048 q 0.208,-0.64 0.416,-1.2 0.224,-0.576 0.384,-1.072 l 1.744,-5.088 h 1.504 l -3.2,8.576 z"
         inkscape:connector-curvature="0"
         style="fill:#fab4dc;fill-opacity:1" />
      <path
         id="path923"
         d="m -13.905643,80.590151 q -0.944,0 -1.6,-0.368 -0.64,-0.384 -1.008,-0.88 h -0.096 l -0.128,1.088 h -1.152 v -12.16 h 1.392 v 2.944 q 0,0.448 -0.016,0.88 0,0.432 -0.048,0.88 h 0.064 q 0.336,-0.512 0.976,-0.896 0.64,-0.384 1.616,-0.384 1.552,0 2.496,1.12 0.96,1.12 0.96,3.312 0,2.208 -0.96,3.344 -0.96,1.12 -2.496,1.12 z m -0.272,-1.168 q 1.168,0 1.712,-0.848 0.544,-0.848 0.544,-2.448 0,-1.568 -0.544,-2.416 -0.544,-0.848 -1.728,-0.848 -1.104,0 -1.712,0.848 -0.592,0.832 -0.592,2.384 0,1.616 0.56,2.48 0.576,0.848 1.76,0.848 z"
         inkscape:connector-curvature="0"
         style="fill:#fab4dc;fill-opacity:1" />
      <path
         id="path925"
         d="m -8.2958932,80.430151 v -8.576 h 1.152 l 0.208,1.264 h 0.08 q 0.368,-0.736 1.088,-1.072 0.736,-0.352 1.712,-0.352 1.296,0 2.08,0.736 0.8,0.72 0.8,2.272 v 5.728 h -1.44 v -5.472 q 0,-1.088 -0.448,-1.584 -0.432,-0.512 -1.408,-0.512 -1.312,0 -1.856,0.832 -0.528,0.832 -0.528,2.336 v 4.4 z"
         inkscape:connector-curvature="0"
         style="fill:#fab4dc;fill-opacity:1" />
      <path
         id="path927"
         d="m 0.81785676,80.430151 v -8.576 H 1.8098568 l 0.208,0.944 h 0.08 q 0.32,-0.64 0.704,-0.864 0.384,-0.24 0.88,-0.24 0.656,0 1.008,0.32 0.368,0.304 0.56,0.912 h 0.048 q 0.272,-0.592 0.672,-0.912 0.416,-0.32 1.088,-0.32 0.992,0 1.376,0.768 0.4,0.752 0.4,2.368 v 5.6 h -1.28 v -5.36 q 0,-1.008 -0.144,-1.568 -0.128,-0.56 -0.72,-0.56 -1.216,0 -1.216,3.2 v 4.288 h -1.28 v -5.36 q 0,-1.024 -0.192,-1.568 -0.176,-0.56 -0.768,-0.56 -0.64,0 -0.896,0.864 -0.24,0.864 -0.24,2.336 v 4.288 z"
         inkscape:connector-curvature="0"
         style="fill:#fab4dc;fill-opacity:1" />
      <path
         id="path929"
         d="m 16.507607,84.270151 v -3.664 q 0,-0.32 0.016,-0.656 0.016,-0.336 0.032,-0.672 h -0.048 q -0.352,0.544 -0.96,0.928 -0.592,0.384 -1.552,0.384 -1.552,0 -2.528,-1.12 -0.976,-1.136 -0.976,-3.312 0,-1.472 0.448,-2.464 0.464,-0.992 1.248,-1.488 0.8,-0.512 1.824,-0.512 0.944,0 1.536,0.384 0.608,0.384 0.96,0.928 h 0.064 l 0.208,-1.152 h 1.152 v 12.416 z m -2.256,-4.848 q 2.256,0 2.256,-2.944 v -0.32 q 0,-1.552 -0.512,-2.416 -0.496,-0.88 -1.776,-0.88 -1.168,0 -1.712,0.848 -0.544,0.848 -0.544,2.464 0,1.472 0.544,2.368 0.56,0.88 1.744,0.88 z"
         inkscape:connector-curvature="0"
         style="fill:#fab4dc;fill-opacity:1" />
      <path
         id="path931"
         d="m 23.141357,80.590151 q -1.264,0 -2.048,-0.624 -0.768,-0.624 -0.768,-1.888 0,-1.392 0.992,-2.08 1.008,-0.688 2.896,-0.736 l 1.84,-0.048 v -0.352 q 0,-1.152 -0.576,-1.568 -0.576,-0.432 -1.552,-0.432 -0.688,0 -1.312,0.176 -0.624,0.176 -1.184,0.496 l -0.496,-1.088 q 0.608,-0.304 1.344,-0.528 0.752,-0.224 1.728,-0.224 1.616,0 2.48,0.736 0.88,0.72 0.88,2.256 v 5.744 h -1.152 l -0.16,-1.184 h -0.064 q -0.528,0.672 -1.216,1.008 -0.688,0.336 -1.632,0.336 z m 0.24,-1.168 q 0.72,0 1.328,-0.256 0.608,-0.272 0.976,-0.8 0.368,-0.544 0.368,-1.36 v -0.768 l -1.536,0.048 q -1.536,0.048 -2.192,0.496 -0.64,0.448 -0.64,1.248 0,0.736 0.464,1.072 0.464,0.32 1.232,0.32 z"
         inkscape:connector-curvature="0"
         style="fill:#fab4dc;fill-opacity:1" />
      <path
         id="path933"
         d="m 30.975107,84.350151 q -0.32,0 -0.624,-0.048 -0.304,-0.032 -0.528,-0.08 v -1.104 q 0.192,0.032 0.448,0.064 0.272,0.032 0.528,0.032 0.736,0 1.136,-0.368 0.4,-0.352 0.72,-1.168 l 0.464,-1.168 -3.6,-8.656 h 1.408 l 2.048,5.04 q 0.208,0.496 0.4,1.104 0.208,0.608 0.368,1.168 h 0.048 q 0.176,-0.592 0.368,-1.184 0.192,-0.608 0.352,-1.104 l 1.68,-5.024 h 1.472 l -3.6,9.696 q -0.304,0.832 -0.672,1.456 -0.352,0.64 -0.928,0.992 -0.56,0.352 -1.488,0.352 z"
         inkscape:connector-curvature="0"
         style="fill:#fab4dc;fill-opacity:1" />
      <path
         id="path935"
         d="m 40.024857,80.430151 -1.376,-8.576 h 1.344 l 0.624,4.24 q 0.096,0.592 0.128,1.056 0.048,0.464 0.08,0.944 0.048,0.48 0.08,1.136 h 0.048 q 0.048,-0.272 0.128,-0.752 0.096,-0.496 0.208,-1.056 0.128,-0.576 0.272,-1.056 l 0.832,-2.896 h 1.584 l 0.8,2.896 q 0.144,0.48 0.272,1.04 0.128,0.544 0.224,1.04 0.112,0.48 0.144,0.784 h 0.048 q 0.048,-0.64 0.08,-1.104 0.032,-0.48 0.08,-0.944 0.048,-0.464 0.144,-1.088 l 0.672,-4.24 h 1.312 l -1.408,8.576 h -1.728 l -0.768,-3.008 q -0.16,-0.656 -0.336,-1.312 -0.176,-0.656 -0.304,-1.296 h -0.048 q -0.128,0.64 -0.32,1.296 -0.176,0.656 -0.352,1.312 l -0.784,3.008 z"
         inkscape:connector-curvature="0"
         style="fill:#fab4dc;fill-opacity:1" />
      <path
         id="path937"
         d="m 52.450607,80.590151 q -0.8,0 -1.536,-0.144 -0.72,-0.144 -1.248,-0.4 v -1.328 q 0.56,0.256 1.232,0.48 0.688,0.208 1.632,0.208 1.056,0 1.488,-0.32 0.448,-0.336 0.448,-0.96 0,-0.336 -0.16,-0.544 -0.144,-0.224 -0.576,-0.448 -0.432,-0.224 -1.264,-0.576 -0.832,-0.368 -1.424,-0.688 -0.592,-0.32 -0.912,-0.752 -0.32,-0.448 -0.32,-1.136 0,-1.136 0.864,-1.712 0.88,-0.576 2.432,-0.576 0.704,0 1.344,0.128 0.64,0.128 1.328,0.416 l -0.432,1.12 q -0.64,-0.272 -1.184,-0.368 -0.528,-0.096 -1.056,-0.096 -0.992,0 -1.456,0.256 -0.448,0.256 -0.448,0.8 0,0.352 0.192,0.592 0.208,0.24 0.656,0.464 0.464,0.224 1.216,0.544 0.848,0.352 1.44,0.656 0.592,0.304 0.896,0.736 0.304,0.416 0.304,1.152 0,1.216 -0.88,1.856 -0.864,0.64 -2.576,0.64 z"
         inkscape:connector-curvature="0"
         style="fill:#fab4dc;fill-opacity:1" />
      <path
         id="path943"
         d="m -33.973143,97.256819 q -1.584,0 -2.544,-1.104 -0.96,-1.12 -0.96,-3.392 0,-2.144 0.912,-3.264 0.912,-1.136 2.752,-1.136 0.896,0 1.472,0.352 0.576,0.352 0.88,0.896 h 0.096 q -0.032,-0.224 -0.064,-0.592 -0.032,-0.368 -0.032,-0.672 v -3.408 h 1.424 v 12.16 h -1.184 l -0.16,-1.152 h -0.064 q -0.352,0.576 -0.96,0.944 -0.592,0.368 -1.568,0.368 z m 0.272,-1.168 q 1.136,0 1.68,-0.784 0.56,-0.8 0.56,-2.16 v -0.32 q 0,-0.944 -0.208,-1.68 -0.208,-0.752 -0.688,-1.184 -0.48,-0.432 -1.296,-0.432 -1.12,0 -1.744,0.832 -0.608,0.832 -0.608,2.544 0,3.184 2.304,3.184 z"
         inkscape:connector-curvature="0"
         style="fill:#fab4dc;fill-opacity:1" />
      <path
         id="path945"
         d="m -23.355393,97.256819 q -1.888,0 -2.976,-1.024 -1.072,-1.04 -1.072,-3.36 0,-1.648 0.528,-2.64 0.544,-0.992 1.488,-1.424 0.96,-0.448 2.176,-0.448 0.752,0 1.36,0.16 0.624,0.144 1.168,0.432 l -0.432,1.168 q -0.512,-0.272 -0.992,-0.384 -0.48,-0.128 -1.04,-0.128 -1.472,0 -2.128,0.816 -0.656,0.8 -0.656,2.416 0,1.712 0.688,2.448 0.688,0.736 2.048,0.736 0.704,0 1.328,-0.144 0.624,-0.16 1.088,-0.368 v 1.264 q -0.48,0.224 -1.184,0.352 -0.704,0.128 -1.392,0.128 z"
         inkscape:connector-curvature="0"
         style="fill:#fab4dc;fill-opacity:1" />
      <path
         id="path947"
         d="m -18.177643,97.096819 v -0.96 l 2.608,-0.24 v -6.176 l -2.352,-0.208 v -0.992 h 3.504 l 0.192,1.568 h 0.064 q 0.448,-0.848 0.976,-1.28 0.544,-0.448 1.424,-0.448 0.544,0 0.96,0.096 0.432,0.096 0.784,0.256 l -0.384,1.264 q -0.256,-0.144 -0.608,-0.24 -0.352,-0.112 -0.752,-0.112 -0.688,0 -1.216,0.432 -0.528,0.432 -0.832,1.152 -0.304,0.72 -0.304,1.584 v 3.104 l 2.496,0.24 v 0.96 z"
         inkscape:connector-curvature="0"
         style="fill:#fab4dc;fill-opacity:1" />
      <path
         id="path949"
         d="m -5.7198932,97.096819 v -7.376 h -2.8 v -0.992 l 2.8,-0.208 v -0.976 q 0,-1.024 0.384,-1.6 0.4,-0.592 1.104,-0.832 0.704,-0.256 1.632,-0.256 0.704,0 1.232,0.096 0.52799996,0.096 0.91199996,0.224 l -0.32,1.104 q -0.31999996,-0.096 -0.79999996,-0.16 -0.48,-0.08 -0.944,-0.08 -0.832,0 -1.296,0.352 -0.464,0.352 -0.464,1.344 v 0.784 h 3.232 v 1.2 h -3.232 v 7.376 z"
         inkscape:connector-curvature="0"
         style="fill:#fab4dc;fill-opacity:1" />
      <path
         id="path951"
         d="m 3.9058568,97.096819 -3.16800004,-8.576 H 2.2098568 l 1.792,5.088 q 0.176,0.512 0.368,1.072 0.208,0.56 0.416,1.2 h 0.048 q 0.208,-0.64 0.416,-1.2 0.224,-0.576 0.384,-1.072 l 1.744,-5.088 h 1.504 l -3.2,8.576 z"
         inkscape:connector-curvature="0"
         style="fill:#fab4dc;fill-opacity:1" />
      <path
         id="path953"
         d="m 16.043607,97.256819 q -0.912,0 -1.632,-0.24 -0.72,-0.24 -1.152,-0.848 -0.416,-0.608 -0.416,-1.68 v -4.768 h -2.336 v -0.992 l 2.336,-0.256 0.288,-2.24 h 1.152 v 2.288 h 3.344 v 1.2 h -3.344 v 4.496 q 0,0.976 0.432,1.424 0.432,0.448 1.424,0.448 0.416,0 0.896,-0.08 0.48,-0.08 0.832,-0.16 v 1.152 q -0.384,0.096 -0.848,0.176 -0.464,0.08 -0.976,0.08 z"
         inkscape:connector-curvature="0"
         style="fill:#fab4dc;fill-opacity:1" />
      <path
         id="path955"
         d="m 23.621357,101.01682 q -0.88,0 -1.664,-0.176 -0.768,-0.16 -1.424,-0.432 v -1.280001 q 0.64,0.368 1.472,0.544 0.848,0.192 1.568,0.192 1.456,0 2.032,-0.688 0.576,-0.672 0.576,-1.856 v -0.304 q 0,-0.192 0,-0.368 0.016,-0.176 0.048,-0.544 h -0.064 q -0.448,0.656 -1.056,0.912 -0.592,0.24 -1.44,0.24 -1.696,0 -2.64,-1.152 -0.944,-1.168 -0.944,-3.248 0,-2.096 0.928,-3.296 0.944,-1.2 2.576,-1.2 0.864,0 1.456,0.288 0.592,0.272 1.056,0.928 h 0.08 l 0.192,-1.056 h 1.152 v 8.8 q 0,1.84 -0.944,2.768001 -0.944,0.928 -2.96,0.928 z m 0.32,-4.928001 q 1.072,0 1.68,-0.688 0.608,-0.704 0.608,-2.24 v -0.336 q 0,-1.76 -0.624,-2.528 -0.624,-0.768 -1.712,-0.768 -1.216,0 -1.776,0.864 -0.56,0.848 -0.56,2.416 0,1.6 0.576,2.448 0.592,0.832 1.808,0.832 z"
         inkscape:connector-curvature="0"
         style="fill:#fab4dc;fill-opacity:1" />
      <path
         id="path957"
         d="m 34.063107,97.256819 q -0.944,0 -1.6,-0.368 -0.64,-0.384 -1.008,-0.88 h -0.096 l -0.128,1.088 h -1.152 v -12.16 h 1.392 v 2.944 q 0,0.448 -0.016,0.88 0,0.432 -0.048,0.88 h 0.064 q 0.336,-0.512 0.976,-0.896 0.64,-0.384 1.616,-0.384 1.552,0 2.496,1.12 0.96,1.12 0.96,3.312 0,2.208 -0.96,3.344 -0.96,1.12 -2.496,1.12 z m -0.272,-1.168 q 1.168,0 1.712,-0.848 0.544,-0.848 0.544,-2.448 0,-1.568 -0.544,-2.416 -0.544,-0.848 -1.728,-0.848 -1.104,0 -1.712,0.848 -0.592,0.832 -0.592,2.384 0,1.616 0.56,2.48 0.576,0.848 1.76,0.848 z"
         inkscape:connector-curvature="0"
         style="fill:#fab4dc;fill-opacity:1" />
      <path
         id="path959"
         d="m 39.832857,97.096819 v -0.976 l 5.04,-6.496 h -4.784 v -1.104 h 6.336 v 1.136 l -4.88,6.224 h 5.008 v 1.216 z"
         inkscape:connector-curvature="0"
         style="fill:#fab4dc;fill-opacity:1" />
      <path
         id="path961"
         d="m 49.266607,97.096819 v -12.16 h 1.44 v 3.456 q 0,0.304 -0.032,0.768 -0.016,0.464 -0.032,0.736 h 0.08 q 0.416,-0.8 1.104,-1.168 0.704,-0.368 1.584,-0.368 1.328,0 2.144,0.752 0.832,0.736 0.832,2.384 v 5.6 h -1.44 v -5.312 q 0,-1.168 -0.496,-1.712 -0.496,-0.544 -1.408,-0.544 -1.072,0 -1.712,0.832 -0.624,0.816 -0.624,2.288 v 4.448 z"
         inkscape:connector-curvature="0"
         style="fill:#fab4dc;fill-opacity:1" />
      <path
         id="path967"
         d="m -32.885143,103.63548 q -0.416,0 -0.704,-0.256 -0.288,-0.256 -0.288,-0.768 0,-0.512 0.272,-0.752 0.288,-0.256 0.72,-0.256 0.416,0 0.704,0.256 0.304,0.24 0.304,0.752 0,0.528 -0.304,0.784 -0.304,0.24 -0.704,0.24 z m -2.4,14.048 q -0.496,0 -1.104,-0.08 -0.592,-0.08 -1.008,-0.192 v -1.264 q 0.416,0.144 0.944,0.24 0.528,0.096 1.008,0.096 1.072,0 1.536,-0.528 0.464,-0.528 0.464,-1.6 v -7.968 l -2.8,-0.208 v -0.992 h 4.24 v 9.408 q 0,1.488 -0.864,2.288 -0.848,0.8 -2.416,0.8 z"
         inkscape:connector-curvature="0"
         style="fill:#fab4dc;fill-opacity:1" />
      <path
         id="path969"
         d="m -27.963393,113.76348 v -8.576 h 0.992 l 0.208,0.944 h 0.08 q 0.32,-0.64 0.704,-0.864 0.384,-0.24 0.88,-0.24 0.656,0 1.008,0.32 0.368,0.304 0.56,0.912 h 0.048 q 0.272,-0.592 0.672,-0.912 0.416,-0.32 1.088,-0.32 0.992,0 1.376,0.768 0.4,0.752 0.4,2.368 v 5.6 h -1.28 v -5.36 q 0,-1.008 -0.144,-1.568 -0.128,-0.56 -0.72,-0.56 -1.216,0 -1.216,3.2 v 4.288 h -1.28 v -5.36 q 0,-1.024 -0.192,-1.568 -0.176,-0.56 -0.768,-0.56 -0.64,0 -0.896,0.864 -0.24,0.864 -0.24,2.336 v 4.288 z"
         inkscape:connector-curvature="0"
         style="fill:#fab4dc;fill-opacity:1" />
      <path
         id="path971"
         d="m -14.257643,103.63548 q -0.416,0 -0.72,-0.256 -0.288,-0.256 -0.288,-0.752 0,-0.528 0.288,-0.768 0.304,-0.256 0.72,-0.256 0.416,0 0.704,0.256 0.304,0.24 0.304,0.768 0,0.496 -0.304,0.752 -0.288,0.256 -0.704,0.256 z m -3.632,10.128 v -0.96 l 3.056,-0.24 v -6.176 l -2.8,-0.208 v -0.992 h 4.24 v 7.376 l 2.864,0.24 v 0.96 z"
         inkscape:connector-curvature="0"
         style="fill:#fab4dc;fill-opacity:1" />
      <path
         id="path973"
         d="m -7.8958932,113.76348 v -12.16 h 1.44 v 5.856 q 0,0.496 -0.048,1.184 -0.032,0.672 -0.064,1.232 h 0.032 q 0.304,-0.4 0.576,-0.72 0.288,-0.336 0.592,-0.688 l 2.96,-3.28 h 1.72799996 l -3.40799996,3.696 3.63199996,4.88 H -2.1198932 l -2.928,-4.032 -1.408,1.36 v 2.672 z"
         inkscape:connector-curvature="0"
         style="fill:#fab4dc;fill-opacity:1" />
      <path
         id="path975"
         d="m 4.8338568,113.92348 q -1.12,0 -2.016,-0.48 -0.88,-0.496 -1.408,-1.488 -0.51200004,-1.008 -0.51200004,-2.512 0,-1.488 0.49600004,-2.464 0.512,-0.976 1.392,-1.456 0.88,-0.496 2,-0.496 1.12,0 2.016,0.496 0.896,0.48 1.408,1.472 0.528,0.976 0.528,2.496 0,1.488 -0.512,2.48 -0.512,0.976 -1.392,1.472 -0.88,0.48 -2,0.48 z m -0.016,-1.168 q 1.248,0 1.856,-0.88 0.608,-0.896 0.608,-2.416 0,-1.52 -0.624,-2.384 -0.608,-0.88 -1.856,-0.88 -1.248,0 -1.872,0.88 -0.608,0.864 -0.608,2.384 0,1.52 0.624,2.416 0.624,0.88 1.872,0.88 z"
         inkscape:connector-curvature="0"
         style="fill:#fab4dc;fill-opacity:1" />
      <path
         id="path977"
         d="m 10.891607,113.76348 v -0.96 l 3.136,-0.24 v -9.76 l -3.04,-0.208 v -0.992 h 4.48 v 10.96 l 2.784,0.24 v 0.96 z"
         inkscape:connector-curvature="0"
         style="fill:#fab4dc;fill-opacity:1" />
      <path
         id="path979"
         d="m 20.485357,117.60348 v -12.416 h 1.184 l 0.176,1.168 h 0.064 q 0.368,-0.624 0.976,-0.976 0.624,-0.352 1.584,-0.352 1.568,0 2.512,1.12 0.944,1.12 0.944,3.312 0,2.192 -0.944,3.328 -0.944,1.136 -2.512,1.136 -0.944,0 -1.568,-0.384 -0.624,-0.384 -0.992,-0.88 h -0.096 q 0.096,0.624 0.096,1.28 v 3.664 z m 3.68,-4.848 q 1.2,0 1.744,-0.816 0.544,-0.832 0.544,-2.512 0,-1.648 -0.544,-2.432 -0.528,-0.8 -1.76,-0.8 -1.168,0 -1.712,0.768 -0.528,0.752 -0.528,2.176 v 0.32 q 0,1.52 0.48,2.416 0.496,0.88 1.776,0.88 z"
         inkscape:connector-curvature="0"
         style="fill:#fab4dc;fill-opacity:1" />
      <path
         id="path981"
         d="m 33.615107,113.92348 q -1.12,0 -2.016,-0.48 -0.88,-0.496 -1.408,-1.488 -0.512,-1.008 -0.512,-2.512 0,-1.488 0.496,-2.464 0.512,-0.976 1.392,-1.456 0.88,-0.496 2,-0.496 1.12,0 2.016,0.496 0.896,0.48 1.408,1.472 0.528,0.976 0.528,2.496 0,1.488 -0.512,2.48 -0.512,0.976 -1.392,1.472 -0.88,0.48 -2,0.48 z m -0.016,-1.168 q 1.248,0 1.856,-0.88 0.608,-0.896 0.608,-2.416 0,-1.52 -0.624,-2.384 -0.608,-0.88 -1.856,-0.88 -1.248,0 -1.872,0.88 -0.608,0.864 -0.608,2.384 0,1.52 0.624,2.416 0.624,0.88 1.872,0.88 z m 1.824,-8.944 q -0.352,0 -0.608,-0.224 -0.256,-0.24 -0.256,-0.72 0,-0.496 0.256,-0.704 0.256,-0.208 0.608,-0.208 0.352,0 0.608,0.208 0.272,0.208 0.272,0.704 0,0.48 -0.272,0.72 -0.256,0.224 -0.608,0.224 z m -3.664,0 q -0.352,0 -0.608,-0.224 -0.256,-0.24 -0.256,-0.72 0,-0.496 0.256,-0.704 0.256,-0.208 0.608,-0.208 0.352,0 0.608,0.208 0.272,0.208 0.272,0.704 0,0.48 -0.272,0.72 -0.256,0.224 -0.608,0.224 z"
         inkscape:connector-curvature="0"
         style="fill:#fab4dc;fill-opacity:1" />
      <path
         id="path983"
         d="m 42.568857,113.92348 q -1.52,0 -2.256,-0.752 -0.72,-0.768 -0.72,-2.272 v -5.712 h 1.44 v 5.488 q 0,1.024 0.416,1.552 0.432,0.528 1.472,0.528 1.328,0 1.84,-0.832 0.512,-0.832 0.512,-2.32 v -4.416 h 1.44 v 8.576 h -1.152 l -0.208,-1.152 h -0.08 q -0.448,0.72 -1.136,1.024 -0.672,0.288 -1.568,0.288 z m 2.448,-10.112 q -0.352,0 -0.608,-0.224 -0.256,-0.24 -0.256,-0.72 0,-0.496 0.256,-0.704 0.256,-0.208 0.608,-0.208 0.352,0 0.608,0.208 0.272,0.208 0.272,0.704 0,0.48 -0.272,0.72 -0.256,0.224 -0.608,0.224 z m -3.664,0 q -0.352,0 -0.608,-0.224 -0.256,-0.24 -0.256,-0.72 0,-0.496 0.256,-0.704 0.256,-0.208 0.608,-0.208 0.352,0 0.608,0.208 0.272,0.208 0.272,0.704 0,0.48 -0.272,0.72 -0.256,0.224 -0.608,0.224 z"
         inkscape:connector-curvature="0"
         style="fill:#fab4dc;fill-opacity:1" />
      <path
         id="path985"
         d="m 51.922607,113.92348 q -1.264,0 -2.048,-0.624 -0.768,-0.624 -0.768,-1.888 0,-1.392 0.992,-2.08 1.008,-0.688 2.896,-0.736 l 1.84,-0.048 v -0.352 q 0,-1.152 -0.576,-1.568 -0.576,-0.432 -1.552,-0.432 -0.688,0 -1.312,0.176 -0.624,0.176 -1.184,0.496 l -0.496,-1.088 q 0.608,-0.304 1.344,-0.528 0.752,-0.224 1.728,-0.224 1.616,0 2.48,0.736 0.88,0.72 0.88,2.256 v 5.744 h -1.152 l -0.16,-1.184 h -0.064 q -0.528,0.672 -1.216,1.008 -0.688,0.336 -1.632,0.336 z m 0.24,-1.168 q 0.72,0 1.328,-0.256 0.608,-0.272 0.976,-0.8 0.368,-0.544 0.368,-1.36 v -0.768 l -1.536,0.048 q -1.536,0.048 -2.192,0.496 -0.64,0.448 -0.64,1.248 0,0.736 0.464,1.072 0.464,0.32 1.232,0.32 z m 2.528,-8.944 q -0.352,0 -0.608,-0.224 -0.256,-0.24 -0.256,-0.72 0,-0.496 0.256,-0.704 0.256,-0.208 0.608,-0.208 0.352,0 0.608,0.208 0.272,0.208 0.272,0.704 0,0.48 -0.272,0.72 -0.256,0.224 -0.608,0.224 z m -3.664,0 q -0.352,0 -0.608,-0.224 -0.256,-0.24 -0.256,-0.72 0,-0.496 0.256,-0.704 0.256,-0.208 0.608,-0.208 0.352,0 0.608,0.208 0.272,0.208 0.272,0.704 0,0.48 -0.272,0.72 -0.256,0.224 -0.608,0.224 z"
         inkscape:connector-curvature="0"
         style="fill:#fab4dc;fill-opacity:1" />
      <path
         id="path989"
         d=""
         inkscape:connector-curvature="0"
         style="fill:#fab4dc;fill-opacity:1" />
    </g>
  </g>
  <g
     inkscape:groupmode="layer"
     id="layer2"
     inkscape:label="LC"
     sodipodi:insensitive="true">
    <text
       xml:space="preserve"
       style="font-style:normal;font-weight:normal;font-size:10.58333302px;line-height:1.25;font-family:sans-serif;letter-spacing:0px;word-spacing:0px;fill:#000000;fill-opacity:1;stroke:none;stroke-width:0.26458332"
       x="1.5548059"
       y="18.841219"
       id="text12-3"><tspan
         sodipodi:role="line"
         id="tspan10-2"
         x="1.5548059"
         y="18.841219"
         style="font-style:normal;font-variant:normal;font-weight:normal;font-stretch:normal;font-size:22.57777786px;font-family:Bahiana;-inkscape-font-specification:'Bahiana, Normal';font-variant-ligatures:normal;font-variant-caps:normal;font-variant-numeric:normal;font-feature-settings:normal;text-align:start;writing-mode:lr-tb;text-anchor:start;stroke-width:0.26458332">L.C</tspan></text>
    <text
       xml:space="preserve"
       style="font-style:normal;font-weight:normal;font-size:10.58333302px;line-height:1.25;font-family:sans-serif;letter-spacing:0px;word-spacing:0px;fill:#f846ab;fill-opacity:1;stroke:#000000;stroke-width:0.26458332"
       x="1.0937463"
       y="18.517916"
       id="text12"><tspan
         sodipodi:role="line"
         id="tspan10"
         x="1.0937463"
         y="18.517916"
         style="font-style:normal;font-variant:normal;font-weight:normal;font-stretch:normal;font-size:22.57777786px;font-family:Bahiana;-inkscape-font-specification:'Bahiana, Normal';font-variant-ligatures:normal;font-variant-caps:normal;font-variant-numeric:normal;font-feature-settings:normal;text-align:start;writing-mode:lr-tb;text-anchor:start;fill:#f846ab;fill-opacity:1;stroke:#000000;stroke-width:0.26458332">L.C</tspan></text>
  </g>
</svg>
